<svg width="57" height="56" viewBox="0 0 57 56" fill="none" xmlns="http://www.w3.org/2000/svg">
<rect x="0.800049" width="55.5747" height="55.5747" rx="27.7873" fill="url(#paint0_linear_71_1760)"/>
<g clip-path="url(#clip0_71_1760)">
<mask id="path-2-inside-1_71_1760" fill="white">
<path d="M26.8 28C26.8 28.2652 26.6947 28.5196 26.5072 28.7071C26.3196 28.8946 26.0653 29 25.8 29H20.869C21.1112 30.9327 22.0507 32.7104 23.5111 33.9993C24.9715 35.2881 26.8523 35.9994 28.8 35.9994C30.7478 35.9994 32.6286 35.2881 34.089 33.9993C35.5494 32.7104 36.4889 30.9327 36.731 29H31.8C31.5348 29 31.2805 28.8946 31.0929 28.7071C30.9054 28.5196 30.8 28.2652 30.8 28C30.8 27.7348 30.9054 27.4804 31.0929 27.2929C31.2805 27.1053 31.5348 27 31.8 27H36.8V25H31.8C31.5348 25 31.2805 24.8946 31.0929 24.7071C30.9054 24.5196 30.8 24.2652 30.8 24C30.8 23.7348 30.9054 23.4804 31.0929 23.2929C31.2805 23.1053 31.5348 23 31.8 23H36.731C36.4889 21.0673 35.5494 19.2895 34.089 18.0007C32.6286 16.7118 30.7478 16.0006 28.8 16.0006C26.8523 16.0006 24.9715 16.7118 23.5111 18.0007C22.0507 19.2895 21.1112 21.0673 20.869 23H25.8C26.0653 23 26.3196 23.1053 26.5072 23.2929C26.6947 23.4804 26.8 23.7348 26.8 24C26.8 24.2652 26.6947 24.5196 26.5072 24.7071C26.3196 24.8946 26.0653 25 25.8 25H20.8V27H25.8C26.0653 27 26.3196 27.1053 26.5072 27.2929C26.6947 27.4804 26.8 27.7348 26.8 28Z"/>
</mask>
<path d="M26.8 28C26.8 28.2652 26.6947 28.5196 26.5072 28.7071C26.3196 28.8946 26.0653 29 25.8 29H20.869C21.1112 30.9327 22.0507 32.7104 23.5111 33.9993C24.9715 35.2881 26.8523 35.9994 28.8 35.9994C30.7478 35.9994 32.6286 35.2881 34.089 33.9993C35.5494 32.7104 36.4889 30.9327 36.731 29H31.8C31.5348 29 31.2805 28.8946 31.0929 28.7071C30.9054 28.5196 30.8 28.2652 30.8 28C30.8 27.7348 30.9054 27.4804 31.0929 27.2929C31.2805 27.1053 31.5348 27 31.8 27H36.8V25H31.8C31.5348 25 31.2805 24.8946 31.0929 24.7071C30.9054 24.5196 30.8 24.2652 30.8 24C30.8 23.7348 30.9054 23.4804 31.0929 23.2929C31.2805 23.1053 31.5348 23 31.8 23H36.731C36.4889 21.0673 35.5494 19.2895 34.089 18.0007C32.6286 16.7118 30.7478 16.0006 28.8 16.0006C26.8523 16.0006 24.9715 16.7118 23.5111 18.0007C22.0507 19.2895 21.1112 21.0673 20.869 23H25.8C26.0653 23 26.3196 23.1053 26.5072 23.2929C26.6947 23.4804 26.8 23.7348 26.8 24C26.8 24.2652 26.6947 24.5196 26.5072 24.7071C26.3196 24.8946 26.0653 25 25.8 25H20.8V27H25.8C26.0653 27 26.3196 27.1053 26.5072 27.2929C26.6947 27.4804 26.8 27.7348 26.8 28Z" fill="white"/>
<path d="M20.869 29V7.66665H-3.30377L-0.298807 31.652L20.869 29ZM36.731 29L57.8989 31.652L60.9039 7.66665H36.731V29ZM36.8 27V48.3333H58.1334V27H36.8ZM36.8 25H58.1334V3.66665H36.8V25ZM31.8 23V44.3333V23ZM36.731 23V44.3333H60.9039L57.8989 20.348L36.731 23ZM28.8 16.0006V37.3339V16.0006ZM20.869 23L-0.298807 20.348L-3.30377 44.3333H20.869V23ZM20.8 25V3.66665H-0.533285V25H20.8ZM20.8 27H-0.533285V48.3333H20.8V27ZM5.46671 28C5.46671 22.6072 7.60898 17.4354 11.4222 13.6221L41.5921 43.792C45.7804 39.6037 48.1334 33.9232 48.1334 28H5.46671ZM11.4222 13.6221C15.2354 9.80892 20.4073 7.66665 25.8 7.66665V50.3333C31.7232 50.3333 37.4038 47.9803 41.5921 43.792L11.4222 13.6221ZM25.8 7.66665H20.869V50.3333H25.8V7.66665ZM-0.298807 31.652C0.589581 38.743 4.03668 45.2656 9.39487 49.9944L37.6273 18.0042C40.0647 20.1553 41.6328 23.1223 42.0369 26.348L-0.298807 31.652ZM9.39487 49.9944C14.7531 54.7232 21.6536 57.3327 28.8 57.3327V14.666C32.0509 14.666 35.1899 15.8531 37.6273 18.0042L9.39487 49.9944ZM28.8 57.3327C35.9465 57.3327 42.847 54.7232 48.2052 49.9944L19.9728 18.0042C22.4102 15.8531 25.5492 14.666 28.8 14.666V57.3327ZM48.2052 49.9944C53.5634 45.2656 57.0105 38.743 57.8989 31.652L15.5632 26.348C15.9673 23.1224 17.5354 20.1553 19.9728 18.0042L48.2052 49.9944ZM36.731 7.66665H31.8V50.3333H36.731V7.66665ZM31.8 7.66665C37.1928 7.66665 42.3647 9.80892 46.1779 13.6221L16.008 43.792C20.1963 47.9803 25.8769 50.3333 31.8 50.3333V7.66665ZM46.1779 13.6221C49.9911 17.4354 52.1334 22.6072 52.1334 28H9.46671C9.46671 33.9232 11.8197 39.6037 16.008 43.792L46.1779 13.6221ZM52.1334 28C52.1334 33.3927 49.9911 38.5646 46.1779 42.3778L16.008 12.2079C11.8197 16.3962 9.46671 22.0768 9.46671 28H52.1334ZM46.1779 42.3778C42.3647 46.1911 37.1928 48.3333 31.8 48.3333V5.66665C25.8769 5.66665 20.1963 8.01963 16.008 12.2079L46.1779 42.3778ZM31.8 48.3333H36.8V5.66665H31.8V48.3333ZM58.1334 27V25H15.4667V27H58.1334ZM36.8 3.66665H31.8V46.3333H36.8V3.66665ZM31.8 3.66665C37.1928 3.66665 42.3647 5.80892 46.1779 9.62215L16.008 39.792C20.1963 43.9803 25.8769 46.3333 31.8 46.3333V3.66665ZM46.1779 9.62215C49.9911 13.4354 52.1334 18.6072 52.1334 24H9.46671C9.46671 29.9232 11.8197 35.6037 16.008 39.792L46.1779 9.62215ZM52.1334 24C52.1334 29.3927 49.9911 34.5646 46.1779 38.3778L16.008 8.20793C11.8197 12.3962 9.46671 18.0768 9.46671 24H52.1334ZM46.1779 38.3778C42.3647 42.1911 37.1928 44.3333 31.8 44.3333V1.66665C25.8769 1.66665 20.1963 4.01963 16.008 8.20793L46.1779 38.3778ZM31.8 44.3333H36.731V1.66665H31.8V44.3333ZM57.8989 20.348C57.0105 13.257 53.5634 6.73439 48.2052 2.00559L19.9728 33.9958C17.5354 31.8447 15.9673 28.8776 15.5632 25.652L57.8989 20.348ZM48.2052 2.00559C42.847 -2.72321 35.9465 -5.33272 28.8 -5.33272V37.3339C25.5492 37.3339 22.4102 36.1469 19.9728 33.9958L48.2052 2.00559ZM28.8 -5.33272C21.6536 -5.33272 14.7531 -2.72321 9.39487 2.00559L37.6273 33.9958C35.1899 36.1469 32.0509 37.3339 28.8 37.3339V-5.33272ZM9.39487 2.00559C4.03668 6.73438 0.589581 13.257 -0.298807 20.348L42.0369 25.652C41.6328 28.8776 40.0647 31.8447 37.6273 33.9958L9.39487 2.00559ZM20.869 44.3333H25.8V1.66665H20.869V44.3333ZM25.8 44.3333C20.4073 44.3333 15.2354 42.1911 11.4222 38.3778L41.5921 8.20793C37.4038 4.01963 31.7232 1.66665 25.8 1.66665V44.3333ZM11.4222 38.3778C7.60898 34.5646 5.46671 29.3927 5.46671 24H48.1334C48.1334 18.0768 45.7804 12.3962 41.5921 8.20793L11.4222 38.3778ZM5.46671 24C5.46671 18.6072 7.60898 13.4354 11.4222 9.62215L41.5921 39.792C45.7804 35.6037 48.1334 29.9232 48.1334 24H5.46671ZM11.4222 9.62215C15.2354 5.80892 20.4073 3.66665 25.8 3.66665V46.3333C31.7232 46.3333 37.4038 43.9803 41.5921 39.792L11.4222 9.62215ZM25.8 3.66665H20.8V46.3333H25.8V3.66665ZM-0.533285 25V27H42.1334V25H-0.533285ZM20.8 48.3333H25.8V5.66665H20.8V48.3333ZM25.8 48.3333C20.4073 48.3333 15.2354 46.1911 11.4222 42.3778L41.5921 12.2079C37.4038 8.01963 31.7232 5.66665 25.8 5.66665V48.3333ZM11.4222 42.3778C7.60898 38.5646 5.46671 33.3927 5.46671 28H48.1334C48.1334 22.0768 45.7804 16.3962 41.5921 12.2079L11.4222 42.3778Z" fill="white" mask="url(#path-2-inside-1_71_1760)"/>
<path d="M39.8 28C39.5348 28 39.2805 28.1054 39.0929 28.2929C38.9054 28.4804 38.8 28.7348 38.8 29C38.7974 31.3861 37.8483 33.6738 36.1611 35.361C34.4738 37.0483 32.1862 37.9974 29.8 38H27.8C25.414 37.9971 23.1265 37.0479 21.4393 35.3607C19.7521 33.6735 18.803 31.3861 18.8 29C18.8 28.7348 18.6947 28.4804 18.5072 28.2929C18.3196 28.1054 18.0653 28 17.8 28C17.5348 28 17.2805 28.1054 17.0929 28.2929C16.9054 28.4804 16.8 28.7348 16.8 29C16.8035 31.9163 17.9635 34.7122 20.0257 36.7744C22.0878 38.8365 24.8837 39.9966 27.8 40H29.8C32.7164 39.9966 35.5123 38.8365 37.5744 36.7744C39.6366 34.7122 40.7966 31.9163 40.8 29C40.8 28.7348 40.6947 28.4804 40.5072 28.2929C40.3196 28.1054 40.0653 28 39.8 28Z" fill="white"/>
</g>
<defs>
<linearGradient id="paint0_linear_71_1760" x1="0.800049" y1="27.7873" x2="56.3747" y2="27.7873" gradientUnits="userSpaceOnUse">
<stop stop-color="#73CBE6"/>
<stop offset="1" stop-color="#52C3E6"/>
</linearGradient>
<clipPath id="clip0_71_1760">
<rect width="24" height="24" fill="white" transform="translate(16.8 16)"/>
</clipPath>
</defs>
</svg>
